<?xml version="1.0" standalone="no"?><!DOCTYPE svg PUBLIC "-//W3C//DTD SVG 1.1//EN" "http://www.w3.org/Graphics/SVG/1.1/DTD/svg11.dtd"><svg t="1602840855820" class="icon" viewBox="0 0 1024 1024" version="1.1" xmlns="http://www.w3.org/2000/svg" p-id="2264" xmlns:xlink="http://www.w3.org/1999/xlink" width="128" height="128"><defs><style type="text/css"></style></defs><path d="M473.6 590.933333c-32-27.733333-59.733333-44.8-98.133333-59.733333-27.733333-10.666667-55.466667 10.666667-55.466667 38.4v102.4c0 29.866667 32 51.2 59.733333 38.4 34.133333-14.933333 66.133333-34.133333 93.866667-57.6 19.2-14.933333 21.333333-46.933333 0-61.866667z" fill="#7FC8EB" p-id="2265"></path><path d="M832 405.333333m-42.666667 0a42.666667 42.666667 0 1 0 85.333334 0 42.666667 42.666667 0 1 0-85.333334 0Z" fill="#F7F11C" p-id="2266"></path><path d="M832 576m-42.666667 0a42.666667 42.666667 0 1 0 85.333334 0 42.666667 42.666667 0 1 0-85.333334 0Z" fill="#F7F11C" p-id="2267"></path><path d="M277.333333 384c-44.8 0-85.333333 36.266667-85.333333 85.333333v206.933334c0 49.066667 40.533333 85.333333 85.333333 85.333333 10.666667 0 23.466667-2.133333 34.133334-6.4 68.266667-29.866667 132.266667-68.266667 192-115.2 40.533333-32 42.666667-96 2.133333-130.133333-64-57.6-121.6-91.733333-200.533333-119.466667-8.533333-4.266667-19.2-6.4-27.733334-6.4z m0 294.4v-206.933333c66.133333 25.6 115.2 55.466667 172.8 104.533333-53.333333 40.533333-110.933333 74.666667-172.8 102.4zM853.333333 192H635.733333l36.266667-36.266667c17.066667-17.066667 17.066667-44.8 0-59.733333-8.533333-8.533333-19.2-12.8-29.866667-12.8-10.666667 0-21.333333 4.266667-29.866666 12.8l-89.6 89.6c-2.133333 2.133333-4.266667 4.266667-4.266667 6.4h-29.866667L426.666667 132.266667c-8.533333-8.533333-19.2-12.8-29.866667-12.8-10.666667 0-21.333333 4.266667-29.866667 12.8-17.066667 17.066667-17.066667 44.8 0 59.733333H170.666667c-93.866667 0-170.666667 76.8-170.666667 170.666667v426.666666c0 93.866667 76.8 170.666667 170.666667 170.666667h341.333333c23.466667 0 42.666667-19.2 42.666667-42.666667s-19.2-42.666667-42.666667-42.666666H170.666667c-46.933333 0-85.333333-38.4-85.333334-85.333334V362.666667c0-46.933333 38.4-85.333333 85.333334-85.333334h469.333333v597.333334c0 21.333333 8.533333 42.666667 25.6 59.733333 17.066667 17.066667 38.4 25.6 59.733333 25.6h128c93.866667 0 170.666667-76.8 170.666667-170.666667V362.666667c0-93.866667-76.8-170.666667-170.666667-170.666667z m85.333334 597.333333c0 46.933333-38.4 85.333333-85.333334 85.333334h-128V277.333333h128c46.933333 0 85.333333 38.4 85.333334 85.333334v426.666666z" fill="#0092D8" p-id="2268"></path></svg>